<svg width="158" height="123" viewBox="0 0 158 123" fill="none" xmlns="http://www.w3.org/2000/svg">
<g opacity="0.8" clip-path="url(#clip0)">
<path d="M88.4281 84.6091C88.0183 84.9913 87.5254 85.2738 86.988 85.4345C86.4506 85.5952 85.8831 85.6298 85.33 85.5355C84.777 85.4413 84.2532 85.2208 83.7998 84.8912C83.3464 84.5617 82.9757 84.1321 82.7165 83.6359L79.3516 77.1949L80.6903 74.3032L87.9039 78.9059C88.3706 79.2037 88.763 79.6039 89.051 80.076C89.3389 80.548 89.5149 81.0794 89.5655 81.6296C89.6161 82.1798 89.5399 82.7343 89.3428 83.2507C89.1456 83.767 88.8328 84.2317 88.4281 84.6091Z" fill="#FFB8B8"/>
<path d="M78.3349 78.1185L50.7516 63.8356C50.6243 63.7697 50.5126 63.6776 50.4239 63.5653C50.3352 63.4531 50.2714 63.3233 50.2369 63.1846L44.2534 39.142C43.9062 37.747 44.0937 36.2729 44.7791 35.0084C45.4645 33.7439 46.5986 32.7799 47.9594 32.3051L49.4008 31.8021C49.7222 31.69 50.0632 31.6448 50.4028 31.6694C50.7423 31.6939 51.0732 31.7877 51.375 31.945C51.6767 32.1022 51.9429 32.3195 52.157 32.5834C52.3711 32.8473 52.5285 33.1522 52.6197 33.4793L58.5173 54.6464C58.5725 54.8445 58.6872 55.021 58.846 55.1522L81.32 73.7173C81.5138 73.8774 81.6407 74.104 81.6757 74.3526C81.7107 74.6012 81.6513 74.8538 81.5091 75.061L79.6338 77.7935C79.4945 77.9965 79.2854 78.1417 79.0462 78.2015C78.8069 78.2614 78.5539 78.2319 78.3349 78.1185Z" fill="#DB3022"/>
<path d="M25.5805 102.998L13.7554 100.106L14.4247 93.4332L26.2499 98.7718L25.5805 102.998Z" fill="#FFB8B8"/>
<path d="M60.1635 40.7145C46.7854 33.6926 32.7816 30.1663 17.7715 32.2617C22.296 24.6167 25.6565 17.5485 25.4318 12.2572C25.285 8.79993 26.7411 5.44386 29.5303 3.38425C31.7168 1.76817 34.3668 0.896279 37.0886 0.89744H37.0886C39.519 -0.183011 42.2727 -0.29216 44.7816 0.592509C46.9543 1.35742 48.5943 3.10131 49.4735 5.22475C49.9866 6.4642 51.0913 7.55001 52.6939 8.50653C54.1783 9.36277 55.3877 10.6224 56.1808 12.1384C57.2363 14.2329 57.309 16.3413 55.9256 18.4703C61.1058 23.896 61.1203 32.0488 60.1635 40.7145Z" fill="#2F2E41"/>
<path d="M57.181 113.596C56.2933 114.658 55.0953 115.417 53.754 115.767C52.4127 116.118 50.9952 116.042 49.6992 115.551C39.8608 116.458 31.888 109.554 23.3497 102.998L25.3577 97.6595L8.62402 85.8701L15.7637 81.4213L31.1587 75.6378L57.0625 104.958C58.1127 106.147 58.7019 107.671 58.7236 109.255C58.7454 110.839 58.1982 112.379 57.181 113.596Z" fill="#2F2E41"/>
<path d="M41.199 23.1416C46.3744 23.1416 50.5699 18.9588 50.5699 13.799C50.5699 8.6393 46.3744 4.4565 41.199 4.4565C36.0236 4.4565 31.8281 8.6393 31.8281 13.799C31.8281 18.9588 36.0236 23.1416 41.199 23.1416Z" fill="#FFB8B8"/>
<path d="M45.6612 34.0413L34.7285 35.1535C35.3151 28.7806 35.5461 22.9 34.7285 18.4703H45.6612C43.5849 25.523 43.7671 30.5499 45.6612 34.0413Z" fill="#FFB8B8"/>
<path d="M31.8278 68.9645L13.9785 59.3996C20.4159 51.9595 23.1382 40.3449 24.405 27.0948C24.6192 24.8542 26.3382 24.9306 28.5926 24.8099C30.9721 24.6826 33.3109 23.4268 35.3977 24.6987L41.4218 31.3719L44.3223 28.2578L50.0217 30.693C50.6057 30.9425 51.079 31.3949 51.3537 31.9661C51.6284 32.5373 51.6858 33.1885 51.5152 33.7987C51.4092 44.5164 50.107 53.9357 44.5454 58.7322L39.86 63.6259L31.8278 68.9645Z" fill="#DB3022"/>
<path opacity="0.2" d="M38.9675 107.002C38.9675 107.002 30.4538 99.088 24.6704 99.486L38.9675 107.002Z" fill="black"/>
<path d="M25.2678 100.325L23.2477 112.295L16.5229 112.122L19.222 99.5504L25.2678 100.325Z" fill="#FFB8B8"/>
<path d="M30.0199 122.998C29.5922 123.011 29.1655 122.95 28.759 122.816L17.9068 121.907C16.7684 121.358 15.8748 120.407 15.3991 119.238C14.9233 118.07 14.8993 116.767 15.3315 115.582L16.5442 111.34C18.7962 112.517 21.1391 112.35 23.3493 110.561L32.9444 117.265C33.3167 117.808 33.5356 118.441 33.5782 119.097C33.6208 119.754 33.4854 120.409 33.1864 120.996C32.8873 121.582 32.4356 122.077 31.8784 122.43C31.3213 122.782 30.6794 122.978 30.0199 122.998Z" fill="#2F2E41"/>
<path d="M3.12229 106.905C3.10933 106.479 3.17114 106.053 3.30492 105.648L4.21706 94.8285C4.76805 93.6935 5.72177 92.8027 6.89365 92.3284C8.06553 91.8541 9.37224 91.83 10.5609 92.261L14.8163 93.4701C13.6353 95.7152 13.8031 98.0511 15.5972 100.255L8.87306 109.821C8.32839 110.192 7.69359 110.41 7.03521 110.453C6.37683 110.495 5.71911 110.36 5.13103 110.062C4.54295 109.764 4.04616 109.313 3.69273 108.758C3.33931 108.203 3.14228 107.563 3.12229 106.905Z" fill="#2F2E41"/>
<path d="M25.8038 100.996L17.9948 100.551L18.2179 86.9823L12.9081 87.2877C5.11602 87.7359 -1.21444 80.8369 0.198394 73.184C0.227485 73.0264 0.259491 72.8685 0.29441 72.7102C1.12202 69.1143 3.27967 65.962 6.33651 63.8828L14.4249 58.2874L21.0068 61.0679L26.2219 58.2766C27.6598 57.6692 29.2308 57.4431 30.7822 57.6202C32.3336 57.7973 33.8127 58.3716 35.0756 59.2873C36.6998 60.465 37.885 62.1479 38.4444 64.0709C39.0038 65.994 38.9057 68.0479 38.1655 69.9093L25.8038 100.996Z" fill="#2F2E41"/>
<path opacity="0.2" d="M21.3414 75.6378C21.3414 75.6378 17.7716 82.756 18.2178 86.9824L21.3414 75.6378Z" fill="black"/>
<path opacity="0.2" d="M34.6167 39.936L36.5714 48.8786L48.4499 59.066L37.9634 48.3888L34.6167 39.936Z" fill="black"/>
<path opacity="0.2" d="M23.6841 44.1624L27.2539 58.6211L37.7404 62.4026L27.9233 57.5089L23.6841 44.1624Z" fill="black"/>
<path d="M52.4665 14.3552C45.56 11.1873 37.7517 10.2841 30.8242 13.6879L31.7167 5.67997L46.8886 3.23311L52.4665 14.3552Z" fill="#2F2E41"/>
<path d="M62.5062 78.4183C62.2104 78.4187 61.9269 78.536 61.7178 78.7445C61.5086 78.953 61.391 79.2357 61.3906 79.5305V120.905C61.391 121.199 61.5086 121.482 61.7178 121.691C61.9269 121.899 62.2104 122.016 62.5062 122.017H156.884C157.18 122.016 157.464 121.899 157.673 121.691C157.882 121.482 157.999 121.199 158 120.905V79.5305C157.999 79.2357 157.882 78.953 157.673 78.7445C157.464 78.536 157.18 78.4187 156.884 78.4183H62.5062Z" fill="#E6E6E6"/>
<path d="M63.6217 79.4193C63.2963 79.4197 62.9844 79.5487 62.7544 79.7781C62.5244 80.0074 62.3949 80.3184 62.3945 80.6427V119.792C62.3949 120.117 62.5244 120.428 62.7544 120.657C62.9844 120.886 63.2963 121.015 63.6217 121.016H155.769C156.094 121.015 156.406 120.886 156.636 120.657C156.866 120.428 156.995 120.117 156.996 119.792V80.6427C156.995 80.3184 156.866 80.0074 156.636 79.7781C156.406 79.5487 156.094 79.4197 155.769 79.4193H63.6217Z" fill="white"/>
<path d="M65.6702 77.9359C65.2605 78.318 64.7676 78.6005 64.2302 78.7612C63.6927 78.9219 63.1253 78.9565 62.5722 78.8623C62.0191 78.7681 61.4954 78.5475 61.042 78.218C60.5886 77.8885 60.2178 77.4588 59.9586 76.9627L56.5938 70.5217L57.9324 67.6299L65.146 72.2326C65.6128 72.5305 66.0052 72.9307 66.2931 73.4027C66.5811 73.8748 66.7571 74.4062 66.8077 74.9564C66.8582 75.5066 66.7821 76.061 66.5849 76.5774C66.3878 77.0938 66.0749 77.5584 65.6702 77.9359Z" fill="#FFB8B8"/>
<path d="M55.5771 71.4453L27.9937 57.1623C27.8665 57.0965 27.7548 57.0043 27.6661 56.8921C27.5774 56.7798 27.5136 56.65 27.4791 56.5113L21.4956 32.4688C21.1484 31.0737 21.3358 29.5997 22.0213 28.3352C22.7067 27.0707 23.8408 26.1067 25.2016 25.6318L26.643 25.1289C26.9644 25.0167 27.3054 24.9715 27.645 24.9961C27.9845 25.0207 28.3154 25.1145 28.6172 25.2717C28.9189 25.4289 29.1851 25.6462 29.3992 25.9101C29.6133 26.1741 29.7707 26.479 29.8619 26.806L35.7594 47.9732C35.8146 48.1713 35.9293 48.3478 36.0881 48.479L58.5622 67.044C58.7561 67.2042 58.8829 67.4308 58.9179 67.6794C58.9529 67.928 58.8935 68.1806 58.7513 68.3878L56.876 71.1203C56.7367 71.3233 56.5276 71.4685 56.2884 71.5283C56.0491 71.5882 55.7961 71.5587 55.5771 71.4453Z" fill="#DB3022"/>
<path d="M79.4231 98.7551C83.0265 98.7551 85.9477 95.8428 85.9477 92.2502C85.9477 88.6577 83.0265 85.7453 79.4231 85.7453C75.8196 85.7453 72.8984 88.6577 72.8984 92.2502C72.8984 95.8428 75.8196 98.7551 79.4231 98.7551Z" fill="#DB3022"/>
<path d="M94.4921 87.9136C94.204 87.914 93.9278 88.0284 93.7242 88.2317C93.5206 88.435 93.4062 88.7105 93.4062 88.9978C93.4062 89.285 93.5206 89.5606 93.7242 89.7639C93.9278 89.9671 94.204 90.0815 94.4921 90.0819H145.757C146.045 90.0819 146.322 89.9677 146.526 89.7644C146.73 89.5611 146.844 89.2853 146.844 88.9978C146.844 88.7102 146.73 88.4345 146.526 88.2311C146.322 88.0278 146.045 87.9136 145.757 87.9136H94.4921Z" fill="#E6E6E6"/>
<path d="M94.4917 94.4185C94.2033 94.4185 93.9267 94.5327 93.7228 94.736C93.5189 94.9394 93.4043 95.2151 93.4043 95.5027C93.4043 95.7902 93.5189 96.066 93.7228 96.2693C93.9267 96.4726 94.2033 96.5868 94.4917 96.5868H116.551C116.694 96.587 116.836 96.5591 116.968 96.5047C117.1 96.4504 117.22 96.3705 117.321 96.2698C117.422 96.1691 117.503 96.0495 117.557 95.9179C117.612 95.7863 117.64 95.6452 117.64 95.5027C117.64 95.3602 117.612 95.219 117.557 95.0874C117.503 94.9558 117.422 94.8362 117.321 94.7355C117.22 94.6348 117.1 94.555 116.968 94.5006C116.836 94.4462 116.694 94.4183 116.551 94.4185H94.4917Z" fill="#E6E6E6"/>
<path d="M74.4183 104.818C73.5911 104.818 72.918 105.304 72.918 105.902C72.918 106.5 73.5911 106.986 74.4183 106.986H145.148C145.975 106.986 146.648 106.5 146.648 105.902C146.648 105.304 145.975 104.818 145.148 104.818H74.4183Z" fill="#E6E6E6"/>
<path d="M74.4183 111.323C73.5911 111.323 72.918 111.809 72.918 112.407C72.918 113.005 73.5911 113.491 74.4183 113.491H145.148C145.975 113.491 146.648 113.005 146.648 112.407C146.648 111.809 145.975 111.323 145.148 111.323H74.4183Z" fill="#E6E6E6"/>
</g>
<defs>
<clipPath id="clip0">
<rect width="158" height="123" fill="white"/>
</clipPath>
</defs>
</svg>
