<svg width="118" height="76" viewBox="0 0 118 76" fill="none" xmlns="http://www.w3.org/2000/svg">
<g clip-path="url(#clip0)">
<path d="M106.915 75.7752L103.567 65.6721C103.567 65.6721 107.25 69.3545 107.25 72.376L106.589 65.3888C106.589 65.3888 108.477 67.9382 108.288 71.8095C108.1 75.6808 106.915 75.7752 106.915 75.7752Z" fill="#E6E6E6"/>
<path d="M35.0201 66.5758L31.7527 56.7155C31.7527 56.7155 35.3466 60.3095 35.3466 63.2583L34.7016 56.4391C34.7016 56.4391 36.5446 58.9272 36.3603 62.7054C36.176 66.4836 35.0201 66.5758 35.0201 66.5758Z" fill="#E6E6E6"/>
<path d="M86.0182 71.126C86.0238 77.6122 73.1591 75.6171 57.4097 75.6307C41.6603 75.6443 28.9902 77.6615 28.9846 71.1752C28.979 64.6889 41.839 63.2671 57.5884 63.2535C73.3378 63.2399 86.0126 64.6397 86.0182 71.126Z" fill="white"/>
<path d="M117.218 75.6268H0V75.9236H117.218V75.6268Z" fill="#3F3D56"/>
<path d="M74.9803 62.3662H72.9213L71.9414 54.4243H74.9803V62.3662Z" fill="#F5C4CB"/>
<path d="M71.2217 61.778H75.4214V64.2782H68.9502V64.0495C68.9502 63.447 69.1895 62.8693 69.6155 62.4433C70.0415 62.0173 70.6193 61.778 71.2217 61.778Z" fill="#2F2E41"/>
<path d="M90.1148 74.088H88.0558L87.0759 66.1461H90.1148V74.088Z" fill="#F5C4CB"/>
<path d="M86.3562 73.4998H90.556V76H84.0847V75.7713C84.0847 75.1688 84.324 74.5911 84.75 74.1651C85.176 73.7391 85.7538 73.4998 86.3562 73.4998Z" fill="#2F2E41"/>
<path d="M99.6119 50.4941C99.7542 50.3214 99.857 50.1197 99.913 49.903C99.9689 49.6863 99.9767 49.4601 99.9357 49.2401C99.8948 49.0201 99.8061 48.8117 99.6759 48.6297C99.5457 48.4477 99.3772 48.2965 99.1822 48.1867L94.4 28.7058L91.3423 30.0214L97.0304 48.8577C96.8676 49.1975 96.8351 49.5851 96.939 49.9473C97.0429 50.3094 97.2761 50.6208 97.5943 50.8225C97.9125 51.0242 98.2936 51.1022 98.6655 51.0417C99.0373 50.9811 99.3741 50.7863 99.6119 50.4941Z" fill="#F5C4CB"/>
<path d="M95.8824 11.1229C95.7117 10.9445 95.504 10.8056 95.2739 10.7162C95.0437 10.6267 94.7968 10.5888 94.5504 10.6051C94.3041 10.6214 94.0643 10.6915 93.8479 10.8105C93.6316 10.9296 93.444 11.0945 93.2983 11.2939L85.8965 12.1437L87.0225 14.9986L93.754 13.7388C94.1051 13.9613 94.5257 14.0473 94.9359 13.9805C95.3462 13.9136 95.7177 13.6986 95.9801 13.3762C96.2424 13.0537 96.3774 12.6463 96.3594 12.231C96.3414 11.8157 96.1716 11.4214 95.8824 11.1229Z" fill="#F5C4CB"/>
<path d="M83.6848 48.4738L86.9147 72.7148L90.9347 71.8872C90.9347 71.8872 90.3436 54.233 92.3536 52.1048C94.3636 49.9765 89.7683 46.2482 89.7683 46.2482L83.6848 48.4738Z" fill="#939393"/>
<path d="M85.0202 41.7968L83.5364 44.0225C83.5364 44.0225 72.1113 39.2745 72.1113 46.8417C72.1113 54.4088 71.4575 59.5442 71.2211 59.8989C70.9846 60.2536 73.9568 61.174 75.3756 60.9375C75.3756 60.9375 77.126 48.7381 77.0078 48.0287C77.0078 48.0287 88.2153 53.5236 90.3435 53.0506C92.4718 52.5777 92.9746 50.9035 93.3293 49.9576C93.684 49.0117 93.1809 41.5001 93.1809 41.5001L86.087 39.3352L85.0202 41.7968Z" fill="#939393"/>
<path d="M85.22 28.434L84.7971 27.9265C84.7971 27.9265 80.0604 17.2688 81.9212 14.3929C83.7821 11.5171 91.9022 11.0941 92.156 11.2633C92.4097 11.4325 91.5499 13.6289 92.1419 14.6439C92.1419 14.6439 85.8516 16.0076 85.4287 16.1768C85.0058 16.346 88.688 22.5976 88.688 22.5976L88.2651 26.4039L85.22 28.434Z" fill="#FF7A70"/>
<path d="M93.5094 23.1897C93.5094 23.1897 89.111 23.6973 88.9418 23.6973C88.7727 23.6973 88.6881 22.5977 88.6881 22.5977L84.7972 27.9265C84.7972 27.9265 82.8803 43.3861 83.3878 43.1323C83.8953 42.8786 93.2556 44.3359 93.3402 43.6592C93.4248 42.9825 93.2556 39.5992 93.5094 39.43C93.7632 39.2608 97.9078 28.7723 97.9078 28.7723C97.9078 28.7723 97.4849 26.5731 96.0469 25.8119C94.609 25.0506 93.5094 23.1897 93.5094 23.1897Z" fill="#FF7A70"/>
<path d="M96.5544 27.3344L97.9078 28.7723C97.9078 28.7723 99.9186 45.2955 98.819 45.8031C97.7194 46.3106 95.5547 46.2482 95.5547 46.2482L93.4248 38.4149L96.5544 27.3344Z" fill="#FF7A70"/>
<path d="M89.2831 22.1433C91.4333 22.1433 93.1764 20.4002 93.1764 18.2501C93.1764 16.0999 91.4333 14.3568 89.2831 14.3568C87.133 14.3568 85.3899 16.0999 85.3899 18.2501C85.3899 20.4002 87.133 22.1433 89.2831 22.1433Z" fill="#F5C4CB"/>
<path d="M88.3696 18.8575C88.317 18.0497 87.2978 18.022 86.4883 18.0144C85.6788 18.0067 84.711 18.0356 84.253 17.3681C83.9503 16.927 84.0081 16.3146 84.2582 15.8416C84.5082 15.3687 84.9196 15.0049 85.3243 14.655C86.3691 13.7516 87.4458 12.8553 88.7002 12.277C89.9545 11.6988 91.4244 11.4651 92.7253 11.9293C94.3234 12.4995 96.4836 15.4348 96.6702 17.1213C96.8567 18.8077 96.1827 20.5269 95.0466 21.7871C93.9105 23.0473 91.3102 22.5389 89.6738 22.9872C90.6687 21.5792 90.0129 19.0207 88.4192 18.3632L88.3696 18.8575Z" fill="#2F2E41"/>
<path d="M53.6709 69.217C58.8326 69.217 63.0171 65.0326 63.0171 59.8708C63.0171 54.7091 58.8326 50.5247 53.6709 50.5247C48.5091 50.5247 44.3247 54.7091 44.3247 59.8708C44.3247 65.0326 48.5091 69.217 53.6709 69.217Z" fill="#DB3022"/>
<path d="M47.4298 49.8606C46.1345 49.8607 44.8669 49.4853 43.7805 48.7799C42.6941 48.0745 41.8355 47.0694 41.3085 45.8861L26.4778 12.4876C25.9866 11.3813 25.7267 10.1862 25.7143 8.97576C25.7019 7.76533 25.9372 6.56514 26.4057 5.44898C26.8742 4.33282 27.566 3.32426 28.4386 2.4853C29.3112 1.64634 30.3462 0.994698 31.4799 0.570437C32.6136 0.146175 33.8221 -0.0417456 35.0312 0.0182264C36.2402 0.0781983 37.4241 0.384795 38.5103 0.919171C39.5965 1.45355 40.5619 2.20441 41.3472 3.12561C42.1325 4.04682 42.7211 5.11889 43.0768 6.27594L53.816 41.2057C54.1234 42.2055 54.1921 43.2635 54.0165 44.2947C53.8409 45.3259 53.4259 46.3015 52.8048 47.1432C52.1838 47.9848 51.374 48.6691 50.4405 49.1411C49.507 49.613 48.4758 49.8595 47.4298 49.8606Z" fill="#DB3022"/>
</g>
<defs>
<clipPath id="clip0">
<rect width="117.218" height="76" fill="white"/>
</clipPath>
</defs>
</svg>
