<svg width="184" height="190" viewBox="0 0 184 190" fill="none" xmlns="http://www.w3.org/2000/svg">
<path opacity="0.8" d="M4.256 183H5.872V173.512H9.488V172.008H0.656V173.512H4.256V183ZM15.485 174.536C14.349 174.536 13.341 175.128 12.845 175.96V171.816H11.277V183H12.845V177.864C12.845 176.792 13.885 175.912 15.133 175.912C16.253 175.912 17.037 176.776 17.037 178.008V183H18.589V177.736C18.589 175.864 17.309 174.536 15.485 174.536ZM24.6471 181.784C23.2231 181.784 22.2151 180.792 22.0071 179.416H28.5191C28.5191 176.456 27.0631 174.536 24.5351 174.536C22.2471 174.536 20.4071 176.36 20.4071 178.84C20.4071 181.384 22.3591 183.192 24.6631 183.192C25.8311 183.192 27.2711 182.696 28.0071 181.912L27.0151 180.888C26.5191 181.4 25.5111 181.784 24.6471 181.784ZM24.5991 175.944C26.0231 175.944 26.8071 176.872 26.9831 178.152H22.0231C22.2791 176.808 23.3191 175.944 24.5991 175.944ZM32.0191 176.312V174.728H30.4351V183H32.0191V178.296C32.1631 176.856 33.3791 175.912 35.0911 175.912V174.536C33.6671 174.536 32.5471 175.224 32.0191 176.312ZM40.4284 181.784C39.0044 181.784 37.9964 180.792 37.7884 179.416H44.3004C44.3004 176.456 42.8444 174.536 40.3164 174.536C38.0284 174.536 36.1884 176.36 36.1884 178.84C36.1884 181.384 38.1404 183.192 40.4444 183.192C41.6124 183.192 43.0524 182.696 43.7884 181.912L42.7964 180.888C42.3004 181.4 41.2924 181.784 40.4284 181.784ZM40.3804 175.944C41.8044 175.944 42.5884 176.872 42.7644 178.152H37.8044C38.0604 176.808 39.1004 175.944 40.3804 175.944ZM54.1865 174.536C53.2745 174.536 52.2345 174.776 51.0505 175.368L51.6265 176.536C52.3465 176.168 53.1465 175.848 53.9625 175.848C55.6105 175.848 56.0905 176.952 56.0905 177.992V178.248C55.2905 177.976 54.4105 177.8 53.5945 177.8C51.7705 177.8 50.2825 178.904 50.2825 180.552C50.2825 182.168 51.5785 183.192 53.3385 183.192C54.3465 183.192 55.4825 182.728 56.0905 181.864V183H57.6425V177.992C57.6425 175.944 56.4105 174.536 54.1865 174.536ZM53.6425 181.944C52.6025 181.944 51.8025 181.4 51.8025 180.504C51.8025 179.608 52.7305 178.984 53.8345 178.984C54.6505 178.984 55.4185 179.096 56.0905 179.304V180.408C55.8185 181.432 54.6665 181.944 53.6425 181.944ZM61.5973 176.312V174.728H60.0133V183H61.5973V178.296C61.7413 176.856 62.9573 175.912 64.6693 175.912V174.536C63.2453 174.536 62.1253 175.224 61.5973 176.312ZM70.0065 181.784C68.5825 181.784 67.5745 180.792 67.3665 179.416H73.8785C73.8785 176.456 72.4225 174.536 69.8945 174.536C67.6065 174.536 65.7665 176.36 65.7665 178.84C65.7665 181.384 67.7185 183.192 70.0225 183.192C71.1905 183.192 72.6305 182.696 73.3665 181.912L72.3745 180.888C71.8785 181.4 70.8705 181.784 70.0065 181.784ZM69.9585 175.944C71.3825 175.944 72.1665 176.872 72.3425 178.152H67.3825C67.6385 176.808 68.6785 175.944 69.9585 175.944ZM84.5006 174.536C83.3806 174.536 82.3726 175.112 81.8766 175.928V174.728H80.2926V183H81.8766V177.64C82.0046 176.664 82.9966 175.912 84.1486 175.912C85.2686 175.912 86.0526 176.776 86.0526 178.008V183H87.6046V177.736C87.6046 175.864 86.3246 174.536 84.5006 174.536ZM93.7908 183.192C96.1428 183.192 98.1267 181.208 98.1267 178.856C98.1267 176.504 96.1428 174.536 93.7908 174.536C91.4228 174.536 89.4228 176.504 89.4228 178.856C89.4228 181.208 91.4228 183.192 93.7908 183.192ZM93.7908 181.816C92.2708 181.816 91.0068 180.472 91.0068 178.856C91.0068 177.256 92.2708 175.912 93.7908 175.912C95.2788 175.912 96.5428 177.256 96.5428 178.856C96.5428 180.472 95.2788 181.816 93.7908 181.816ZM108.478 183.192C110.83 183.192 112.814 181.208 112.814 178.856C112.814 176.504 110.83 174.536 108.478 174.536C106.11 174.536 104.11 176.504 104.11 178.856C104.11 181.208 106.11 183.192 108.478 183.192ZM108.478 181.816C106.958 181.816 105.694 180.472 105.694 178.856C105.694 177.256 106.958 175.912 108.478 175.912C109.966 175.912 111.23 177.256 111.23 178.856C111.23 180.472 109.966 181.816 108.478 181.816ZM116.332 176.312V174.728H114.748V183H116.332V178.296C116.476 176.856 117.692 175.912 119.404 175.912V174.536C117.98 174.536 116.86 175.224 116.332 176.312ZM127.317 171.816V176.152C126.677 175.144 125.653 174.536 124.373 174.536C122.197 174.536 120.565 176.328 120.565 178.856C120.565 181.4 122.197 183.192 124.373 183.192C125.653 183.192 126.677 182.584 127.317 181.56V183H128.885V171.816H127.317ZM124.757 181.816C123.237 181.816 122.165 180.584 122.165 178.856C122.165 177.128 123.237 175.912 124.757 175.912C126.245 175.912 127.317 177.128 127.317 178.856C127.317 180.584 126.245 181.816 124.757 181.816ZM135.053 181.784C133.629 181.784 132.621 180.792 132.413 179.416H138.925C138.925 176.456 137.469 174.536 134.941 174.536C132.653 174.536 130.813 176.36 130.813 178.84C130.813 181.384 132.765 183.192 135.069 183.192C136.237 183.192 137.677 182.696 138.413 181.912L137.421 180.888C136.925 181.4 135.917 181.784 135.053 181.784ZM135.005 175.944C136.429 175.944 137.213 176.872 137.389 178.152H132.429C132.685 176.808 133.725 175.944 135.005 175.944ZM142.425 176.312V174.728H140.841V183H142.425V178.296C142.569 176.856 143.785 175.912 145.497 175.912V174.536C144.073 174.536 142.953 175.224 142.425 176.312ZM150.035 183.192C151.843 183.192 153.171 182.2 153.171 180.632C153.171 178.984 151.715 178.536 150.355 178.136C148.963 177.704 148.451 177.512 148.451 176.872C148.451 176.248 149.091 175.896 149.907 175.896C150.627 175.896 151.459 176.168 152.259 176.664L152.963 175.496C152.067 174.904 150.979 174.536 149.907 174.536C148.147 174.536 146.883 175.528 146.899 177.048C146.899 178.392 147.843 178.936 149.747 179.464C150.771 179.752 151.619 179.992 151.619 180.76C151.619 181.4 150.979 181.832 150.051 181.832C149.075 181.832 148.131 181.464 147.251 180.824L146.499 181.96C147.491 182.76 148.819 183.192 150.035 183.192ZM161.046 185.88C162.23 185.864 163.11 185.24 163.702 183.752L167.35 174.728H165.702L163.19 181.256L160.534 174.728H158.838L162.39 183.048L161.974 183.928C161.702 184.408 161.35 184.568 160.838 184.568C160.518 184.568 160.15 184.488 159.83 184.312L159.478 185.528C159.91 185.752 160.486 185.88 161.046 185.88ZM172.538 181.784C171.114 181.784 170.106 180.792 169.898 179.416H176.41C176.41 176.456 174.954 174.536 172.426 174.536C170.138 174.536 168.298 176.36 168.298 178.84C168.298 181.384 170.25 183.192 172.554 183.192C173.722 183.192 175.162 182.696 175.898 181.912L174.906 180.888C174.41 181.4 173.402 181.784 172.538 181.784ZM172.49 175.944C173.914 175.944 174.698 176.872 174.874 178.152H169.914C170.17 176.808 171.21 175.944 172.49 175.944ZM182.118 181.512C181.942 181.688 181.622 181.816 181.27 181.816C180.806 181.816 180.422 181.4 180.422 180.824V176.072H182.374V174.728H180.422V172.456H178.87V174.728H177.622V176.072H178.87V180.936C178.87 182.264 179.766 183.192 181.046 183.192C181.638 183.192 182.246 182.968 182.694 182.6L182.118 181.512Z" fill="#222222"/>
<g opacity="0.8" clip-path="url(#clip0)">
<path d="M26.8556 54.1656L20.5858 61.2085C25.7945 63.4226 31.067 60.3489 33.2283 58.808C40.2071 62.6509 48.3849 63.685 56.0977 61.7C63.8104 59.715 70.4788 54.86 74.746 48.1227C79.0131 41.3855 80.5585 33.2722 79.0676 25.4336C77.5768 17.5951 73.1618 10.6201 66.7208 5.92797C60.2799 1.23581 52.2969 -0.821053 44.3962 0.17587C36.4955 1.17279 29.2706 5.14861 24.1915 11.2944C19.1124 17.4402 16.5608 25.2942 17.0557 33.2584C17.5506 41.2226 21.0549 48.6987 26.8556 54.1656V54.1656Z" fill="#E6E6E6"/>
<path d="M31.4138 26.1633C37.8821 26.0958 44.3495 25.9799 50.8175 25.8919C52.9738 25.8625 55.1301 25.8368 57.2865 25.8147C59.1444 25.7953 59.1492 22.9001 57.2865 22.9195C50.8182 22.987 44.3508 23.1029 37.8828 23.191C35.7265 23.2203 33.5702 23.246 31.4138 23.2681C29.5558 23.2875 29.5511 26.1827 31.4138 26.1633Z" fill="white"/>
<path d="M31.4138 32.9187L57.5559 32.6473L64.9909 32.5701C66.8489 32.5508 66.8536 29.6556 64.9909 29.6749L38.8487 29.9463L31.4138 30.0235C29.5558 30.0428 29.5511 32.938 31.4138 32.9187Z" fill="white"/>
<path d="M31.4138 39.674L57.5559 39.4026L64.9909 39.3254C66.8489 39.3061 66.8536 36.4109 64.9909 36.4303L38.8487 36.7017L31.4138 36.7789C29.5558 36.7982 29.5511 39.6934 31.4138 39.674Z" fill="white"/>
<path d="M12.2777 67.3C13.5356 67.3 14.5554 66.2781 14.5554 65.0175C14.5554 63.757 13.5356 62.7351 12.2777 62.7351C11.0198 62.7351 10 63.757 10 65.0175C10 66.2781 11.0198 67.3 12.2777 67.3Z" fill="#E6E6E6"/>
<path d="M125.476 78.7876L124.203 86.7513C124.123 87.2503 123.935 87.7257 123.652 88.1438C123.369 88.562 122.997 88.9128 122.564 89.1715C122.131 89.4302 121.646 89.5904 121.144 89.6409C120.643 89.6915 120.136 89.631 119.66 89.4638C119.187 89.2975 118.755 89.0297 118.396 88.679C118.037 88.3283 117.758 87.9032 117.579 87.4334C117.401 86.9637 117.327 86.4605 117.363 85.9591C117.398 85.4577 117.543 84.9702 117.786 84.5306L121.929 77.043L137.944 44.9884C138.574 43.9225 139.539 43.0955 140.688 42.6366C141.836 42.1777 143.104 42.1126 144.293 42.4515L145.99 42.9349L143.467 50.35L125.476 78.7876Z" fill="#FFBEC7"/>
<path d="M169.672 134.774L173.421 134.576L169.277 120.736L163.358 121.922L169.672 134.774Z" fill="#FFBEC7"/>
<path d="M132.183 137.344H136.327L138.497 123.899H132.183V137.344Z" fill="#FFBEC7"/>
<path d="M138.751 23.7701C138.751 26.7214 139.913 29.5536 141.984 31.6516C144.056 33.7496 146.869 34.9439 149.814 34.9752C152.759 35.0065 155.598 33.8723 157.713 31.8188C159.829 29.7653 161.05 26.9585 161.113 24.0078C161.116 23.9297 161.116 23.8482 161.116 23.7701C161.117 22.2981 160.828 20.8404 160.266 19.4802C159.705 18.1201 158.881 16.8842 157.843 15.843C156.804 14.8019 155.571 13.976 154.214 13.4126C152.857 12.8491 151.402 12.5591 149.933 12.5591C148.465 12.5591 147.01 12.8491 145.653 13.4126C144.296 13.976 143.063 14.8019 142.024 15.843C140.986 16.8842 140.162 18.1201 139.601 19.4802C139.039 20.8404 138.75 22.2981 138.751 23.7701Z" fill="#2F2E41"/>
<path d="M154.678 17.6581C157.859 17.6581 160.438 15.0736 160.438 11.8854C160.438 8.69729 157.859 6.11279 154.678 6.11279C151.496 6.11279 148.917 8.69729 148.917 11.8854C148.917 15.0736 151.496 17.6581 154.678 17.6581Z" fill="#2F2E41"/>
<path d="M154.077 16.2979C155.189 16.7051 156.399 16.759 157.542 16.4525C158.686 16.146 159.707 15.4938 160.468 14.5847C161.228 13.6757 161.691 12.554 161.792 11.3722C161.894 10.1904 161.629 9.00589 161.035 7.97998C161.579 8.57873 161.991 9.28548 162.245 10.0543C162.498 10.8231 162.587 11.6367 162.507 12.4424C162.426 13.248 162.177 14.0275 161.775 14.7304C161.374 15.4332 160.83 16.0436 160.178 16.5218C159.526 17 158.781 17.3354 157.991 17.5062C157.201 17.677 156.384 17.6793 155.593 17.513C154.803 17.3467 154.056 17.0155 153.401 16.541C152.746 16.0664 152.199 15.4591 151.793 14.7586C152.419 15.4499 153.202 15.9783 154.077 16.2979Z" fill="#2F2E41"/>
<path d="M149.051 36.0707C152.62 36.0707 155.512 33.172 155.512 29.5963C155.512 26.0205 152.62 23.1218 149.051 23.1218C145.483 23.1218 142.59 26.0205 142.59 29.5963C142.59 33.172 145.483 36.0707 149.051 36.0707Z" fill="#FFBEC7"/>
<path d="M153.69 31.959C153.69 31.959 154.282 39.4724 158.031 41.0541L143.43 54.4992L138.694 52.3242L142.049 42.8336C142.049 42.8336 149.744 41.2519 146.587 34.3316L153.69 31.959Z" fill="#FFBEC7"/>
<path d="M128.829 125.085L139.484 125.679L144.416 88.507L157.241 125.481L170.067 121.329L157.439 79.0164C154.187 67.3119 156.923 54.4488 161.385 41.2517L156.452 39.8677L145.206 41.4494C144.043 41.4512 142.901 41.764 141.9 42.3556C140.898 42.9471 140.072 43.796 139.507 44.8144C136.736 49.7851 134.733 54.6075 136.366 58.7271C129.818 75.9 128.407 99.3685 128.829 125.085Z" fill="#DB3022"/>
<path d="M160.399 82.1801L157.658 89.7636C157.487 90.2387 157.421 90.7459 157.467 91.2492C157.512 91.7525 157.667 92.2397 157.92 92.6764C158.174 93.1132 158.52 93.4888 158.935 93.7768C159.349 94.0648 159.822 94.2581 160.319 94.3432C160.813 94.4278 161.32 94.4032 161.804 94.2711C162.288 94.139 162.738 93.9026 163.121 93.5785C163.504 93.2543 163.812 92.8502 164.024 92.3943C164.235 91.9385 164.345 91.4419 164.345 90.9392V82.3778L165.85 46.562C165.814 45.3235 165.371 44.1315 164.588 43.1721C163.806 42.2126 162.729 41.5397 161.524 41.2581L159.807 40.8564L158.425 48.5676L160.399 82.1801Z" fill="#FFBEC7"/>
<path d="M171.014 145.764C171.808 145.787 172.586 145.538 173.219 145.057C173.852 144.576 174.303 143.893 174.495 143.121L174.627 142.595C175.254 140.079 175.088 137.43 174.15 135.013L172.829 131.61L168.883 133.39L167.668 141.773C167.598 142.26 167.631 142.756 167.765 143.23C167.9 143.703 168.133 144.143 168.448 144.519C168.764 144.896 169.156 145.202 169.598 145.416C170.04 145.631 170.523 145.749 171.014 145.764Z" fill="#2F2E41"/>
<path d="M125.838 146.566C126.269 146.83 126.761 146.978 127.267 146.998C127.772 147.017 128.274 146.907 128.725 146.678L136.238 142.437C136.726 142.162 137.116 141.742 137.355 141.236C137.594 140.729 137.67 140.161 137.573 139.609L136.721 134.774H131.986L125.218 141.988C124.916 142.311 124.689 142.697 124.554 143.119C124.419 143.54 124.38 143.987 124.44 144.425C124.499 144.864 124.655 145.284 124.897 145.654C125.139 146.025 125.46 146.336 125.838 146.566Z" fill="#2F2E41"/>
<path d="M138.853 22.2591C140.604 26.5139 145.132 29.5428 150.442 29.5428C154.989 29.5428 158.964 27.3221 161.113 24.0079C161.116 23.9298 161.116 23.8483 161.116 23.7702C161.116 20.9293 160.039 18.1945 158.103 16.1189C156.167 14.0434 153.517 12.7821 150.689 12.5901C147.86 12.3981 145.065 13.2898 142.867 15.0848C140.67 16.8798 139.235 19.4442 138.853 22.2591V22.2591Z" fill="#2F2E41"/>
<path d="M119.161 55.3543C119.158 48.4904 116.905 41.8173 112.749 36.3616C108.592 30.9059 102.762 26.9696 96.1552 25.1581C89.5483 23.3467 82.5305 23.7605 76.1811 26.3357C69.8318 28.911 64.5025 33.5052 61.013 39.4117C57.5235 45.3182 56.067 52.2099 56.8675 59.0269C57.6681 65.8438 60.6813 72.2084 65.4437 77.1419C70.2062 82.0753 76.4542 85.3043 83.2267 86.3322C89.9991 87.3602 96.9211 86.1301 102.928 82.8313C105.089 84.3722 110.362 87.4459 115.57 85.2318L109.301 78.1889C112.417 75.2625 114.901 71.7257 116.597 67.7977C118.293 63.8697 119.166 59.6343 119.161 55.3543Z" fill="#CECECE"/>
<path d="M71.9119 50.1865C78.3801 50.119 84.8476 50.0031 91.3156 49.9151C93.4719 49.8857 95.6282 49.86 97.7845 49.8379C99.6425 49.8185 99.6473 46.9233 97.7845 46.9427C91.3163 47.0102 84.8488 47.1261 78.3808 47.2142C76.2246 47.2435 74.0682 47.2692 71.9119 47.2913C70.0539 47.3107 70.0491 50.2059 71.9119 50.1865Z" fill="white"/>
<path d="M71.9119 56.9419L98.054 56.6705L105.489 56.5933C107.347 56.574 107.352 53.6788 105.489 53.6981L79.3468 53.9695L71.9119 54.0467C70.0539 54.066 70.0491 56.9612 71.9119 56.9419V56.9419Z" fill="white"/>
<path d="M71.9119 63.6972L98.054 63.4258L105.489 63.3486C107.347 63.3293 107.352 60.4341 105.489 60.4535L79.3468 60.7249L71.9119 60.8021C70.0539 60.8214 70.0491 63.7166 71.9119 63.6972Z" fill="white"/>
</g>
<defs>
<clipPath id="clip0">
<rect width="165" height="147" fill="white" transform="translate(10)"/>
</clipPath>
</defs>
</svg>
